<svg xmlns="http://www.w3.org/2000/svg" xmlns:xlink="http://www.w3.org/1999/xlink" width="4000" zoomAndPan="magnify" viewBox="0 0 3000 2999.999989" height="4000" preserveAspectRatio="xMidYMid meet" version="1.0"><defs><g/><clipPath id="03a11af1f5"><path d="M 1355 0.558594 L 1493 0.558594 L 1493 503 L 1355 503 Z M 1355 0.558594 " clip-rule="nonzero"/></clipPath><clipPath id="277af56b2f"><path d="M 0.480469 2216 L 2930.640625 2216 L 2930.640625 2717.121094 L 0.480469 2717.121094 Z M 0.480469 2216 " clip-rule="nonzero"/></clipPath><clipPath id="4bd3bfce6a"><rect x="0" width="2931" y="0" height="502"/></clipPath><clipPath id="9d5eeb31cc"><rect x="0" width="2931" y="0" height="2718"/></clipPath></defs><rect x="-300" width="3600" fill="#ffffff" y="-299.999999" height="3599.999987" fill-opacity="1"/><rect x="-300" width="3600" fill="#10100f" y="-299.999999" height="3599.999987" fill-opacity="1"/><g transform="matrix(1, 0, 0, 1, 54, 214)"><g clip-path="url(#9d5eeb31cc)"><path fill="#ffe5bc" d="M 1444.269531 1493.050781 C 1457.074219 1356.601562 1340.152344 1339.496094 1456.976562 1172.890625 C 1397.253906 1319.96875 1518.082031 1362.140625 1444.269531 1493.050781 M 1627.539062 1605.226562 C 1634.902344 1468.382812 1517.390625 1455.925781 1627.539062 1284.816406 C 1573.699219 1434.320312 1696.058594 1471.496094 1627.539062 1605.226562 Z M 1272.917969 1606.414062 C 1280.28125 1469.519531 1162.765625 1457.0625 1272.917969 1286.003906 C 1219.078125 1435.308594 1341.488281 1472.632812 1272.917969 1606.414062 Z M 1663.085938 2161.0625 C 1640.539062 2163.535156 1618.589844 2165.511719 1596.589844 2167.195312 C 1596.539062 2032.523438 1947.550781 2096.792969 1918.484375 1730.949219 C 1633.289062 1770.070312 1340.648438 1770.070312 1040.554688 1730.949219 C 1007.480469 2098.375 1333.230469 2028.914062 1333.230469 2167.144531 C 960.710938 2133.675781 753.664062 1954.957031 726.621094 1727.390625 C 667.296875 1226.183594 999.769531 1049.441406 985.136719 912.84375 C 1057.511719 1054.730469 838.847656 1278.6875 985.136719 1483.511719 C 916.859375 1025.019531 1331.203125 746.878906 1292.394531 405.753906 C 1482.832031 542.003906 1219.277344 722.40625 1448.472656 985.8125 C 1326.558594 585.90625 1648.449219 493.210938 1541.167969 220.0625 C 2028.878906 483.46875 1541.167969 1044.347656 1999.613281 1141.890625 C 1687.457031 932.171875 1945.871094 683.101562 2048.40625 595.644531 C 1877.695312 863.898438 2280.371094 1126.8125 2258.125 1527.214844 C 2238.597656 1878.375 1984.976562 2122.253906 1663.085938 2161.0625 Z M 1663.085938 2161.0625 " fill-opacity="1" fill-rule="evenodd"/><g clip-path="url(#03a11af1f5)"><path fill="#ffe5bc" d="M 1450.203125 502.949219 C 1465.035156 288.386719 1230.695312 268.859375 1450.203125 0.605469 C 1342.871094 234.695312 1586.75 293.230469 1450.203125 502.949219 " fill-opacity="1" fill-rule="evenodd"/></g><path fill="#ffe5bc" d="M 1070.566406 834.632812 C 936.242188 706.089844 1081.738281 616.359375 1070.566406 493.210938 C 1171.269531 621.75 1025.773438 689.085938 1070.566406 834.632812 " fill-opacity="1" fill-rule="evenodd"/><path fill="#ffe5bc" d="M 1904.292969 590.75 C 2038.617188 462.210938 1893.070312 372.480469 1904.292969 249.332031 C 1803.539062 377.871094 1949.035156 445.253906 1904.292969 590.75 " fill-opacity="1" fill-rule="evenodd"/><g clip-path="url(#277af56b2f)"><g transform="matrix(1, 0, 0, 1, 0, 2216)"><g clip-path="url(#4bd3bfce6a)"><g fill="#ffe5bc" fill-opacity="1"><g transform="translate(2.012387, 401.008311)"><g><path d="M 205.609375 -73.359375 L 136.234375 -73.859375 L 103.796875 -72.359375 L 100.8125 -64.375 L 93.328125 -42.421875 L 85.84375 -17.46875 L 56.890625 -17.46875 L 32.9375 -16.96875 L 4.984375 -18.96875 L 15.96875 -43.921875 L 23.953125 -71.859375 L 35.4375 -93.828125 L 42.421875 -116.78125 L 48.90625 -140.234375 L 61.875 -165.1875 L 71.359375 -192.625 L 79.34375 -215.59375 L 85.84375 -239.046875 L 91.828125 -260.5 L 103.296875 -286.453125 L 111.78125 -312.90625 L 138.734375 -314.40625 L 168.171875 -313.40625 L 197.125 -309.90625 L 205.109375 -286.453125 L 215.59375 -259.5 L 223.078125 -237.546875 L 233.0625 -213.59375 L 240.046875 -191.140625 L 248.53125 -164.6875 L 257.515625 -146.21875 L 266.484375 -119.765625 L 272.984375 -93.828125 L 284.453125 -67.875 L 291.4375 -44.921875 L 304.921875 -18.96875 L 272.984375 -18.96875 L 248.53125 -17.96875 L 225.5625 -15.46875 L 216.59375 -41.421875 L 210.09375 -63.375 Z M 153.703125 -226.0625 L 145.71875 -206.609375 L 142.234375 -183.65625 L 131.75 -157.703125 L 123.765625 -135.734375 L 123.265625 -134.75 L 185.640625 -134.25 L 176.65625 -156.203125 L 166.1875 -184.640625 L 161.1875 -204.109375 Z M 153.703125 -226.0625 "/></g></g></g><g fill="#ffe5bc" fill-opacity="1"><g transform="translate(282.473229, 401.008311)"><g><path d="M 210.59375 -201.609375 L 207.609375 -226.0625 L 200.125 -242.03125 L 185.640625 -253.015625 L 165.1875 -256.515625 L 147.71875 -255.515625 L 131.25 -247.53125 L 120.265625 -236.046875 L 114.78125 -216.09375 L 108.296875 -197.625 L 105.296875 -163.1875 L 110.296875 -129.75 L 111.28125 -113.28125 L 117.28125 -95.8125 L 130.25 -84.34375 L 143.21875 -75.859375 L 164.6875 -74.859375 L 186.640625 -75.859375 L 203.109375 -87.328125 L 211.09375 -106.296875 L 213.09375 -129.75 L 244.03125 -134.25 L 266.984375 -131.75 L 294.9375 -133.75 L 293.4375 -111.78125 L 286.453125 -88.828125 L 276.96875 -67.875 L 262.5 -49.90625 L 244.53125 -33.9375 L 221.578125 -22.453125 L 195.125 -14.46875 L 164.1875 -13.46875 L 137.734375 -13.46875 L 117.78125 -17.46875 L 94.8125 -26.453125 L 72.859375 -35.9375 L 58.890625 -47.40625 L 45.40625 -61.875 L 33.4375 -82.34375 L 25.453125 -106.296875 L 23.953125 -136.734375 L 20.953125 -167.1875 L 22.953125 -197.625 L 26.453125 -227.0625 L 35.9375 -252.015625 L 48.40625 -270.484375 L 57.890625 -285.953125 L 75.359375 -295.9375 L 96.3125 -307.40625 L 116.78125 -313.90625 L 139.734375 -317.890625 L 168.171875 -315.890625 L 195.625 -315.890625 L 225.0625 -305.421875 L 248.03125 -293.9375 L 268.984375 -277.96875 L 279.96875 -256.515625 L 291.4375 -234.546875 L 293.9375 -205.609375 L 263 -203.609375 L 241.53125 -204.109375 Z M 210.59375 -201.609375 "/></g></g></g><g fill="#ffe5bc" fill-opacity="1"><g transform="translate(569.920618, 401.008311)"><g><path d="M 135.734375 -72.859375 L 162.6875 -64.875 L 191.140625 -70.359375 L 204.109375 -80.84375 L 208.109375 -91.828125 L 202.109375 -114.78125 L 176.65625 -126.265625 L 157.703125 -136.234375 L 136.734375 -147.71875 L 137.234375 -147.71875 L 118.765625 -156.703125 L 96.3125 -168.171875 L 74.859375 -178.15625 L 53.890625 -192.140625 L 42.921875 -213.59375 L 36.4375 -239.546875 L 39.421875 -266.984375 L 51.90625 -285.953125 L 66.375 -298.921875 L 79.34375 -305.421875 L 105.296875 -314.40625 L 134.25 -316.890625 L 192.625 -316.890625 L 220.578125 -311.40625 L 246.53125 -301.921875 L 264.5 -288.953125 L 279.96875 -272.984375 L 285.453125 -250.515625 L 293.4375 -220.078125 L 262 -221.078125 L 237.546875 -219.578125 L 209.59375 -223.078125 L 206.109375 -236.546875 L 197.125 -250.015625 L 180.15625 -258 L 161.6875 -262.5 L 139.234375 -260.5 L 126.265625 -249.03125 L 122.265625 -238.046875 L 125.765625 -223.078125 L 132.25 -212.59375 L 162.1875 -202.609375 L 186.140625 -191.140625 L 205.609375 -182.15625 L 229.5625 -172.171875 L 254.015625 -160.6875 L 276.96875 -143.71875 L 292.4375 -119.765625 L 297.4375 -88.828125 L 295.4375 -69.859375 L 288.953125 -52.90625 L 275.96875 -38.421875 L 258 -27.953125 L 232.5625 -18.96875 L 201.609375 -12.46875 L 158.703125 -9.484375 L 119.265625 -15.46875 L 95.3125 -21.953125 L 66.875 -31.4375 L 51.40625 -46.90625 L 36.921875 -60.890625 L 26.453125 -80.84375 L 25.453125 -111.28125 L 55.890625 -107.296875 L 80.34375 -108.796875 L 114.78125 -111.28125 L 116.78125 -90.328125 L 126.765625 -80.34375 Z M 135.734375 -72.859375 "/></g></g></g><g fill="#ffe5bc" fill-opacity="1"><g transform="translate(857.367962, 401.008311)"><g><path d="M 188.140625 -152.703125 L 182.15625 -169.671875 L 169.171875 -179.65625 L 148.21875 -185.140625 L 126.765625 -181.15625 L 109.296875 -167.1875 L 99.3125 -150.71875 L 100.3125 -126.765625 L 100.8125 -100.3125 L 108.296875 -84.34375 L 123.265625 -73.359375 L 153.703125 -69.859375 L 174.171875 -70.359375 L 183.65625 -82.34375 L 195.125 -116.78125 L 228.5625 -105.796875 L 245.03125 -102.296875 L 270.484375 -97.8125 L 265 -77.359375 L 253.515625 -53.890625 L 236.046875 -37.421875 L 219.578125 -23.953125 L 197.625 -20.953125 L 171.671875 -16.46875 L 145.71875 -12.96875 L 120.765625 -14.96875 L 94.8125 -18.46875 L 75.359375 -26.453125 L 56.890625 -33.4375 L 40.921875 -49.40625 L 26.953125 -70.859375 L 20.953125 -91.828125 L 18.46875 -122.765625 L 20.453125 -159.203125 L 27.453125 -180.65625 L 42.421875 -203.609375 L 55.890625 -217.578125 L 75.359375 -228.0625 L 97.3125 -235.046875 L 121.265625 -236.546875 L 149.21875 -240.046875 L 175.171875 -238.546875 L 204.109375 -229.5625 L 229.5625 -221.078125 L 245.53125 -206.609375 L 261.5 -182.65625 L 266.984375 -151.703125 L 240.046875 -152.203125 L 215.09375 -150.71875 Z M 188.140625 -152.703125 "/></g></g></g><g fill="#ffe5bc" fill-opacity="1"><g transform="translate(1116.869206, 401.008311)"><g><path d="M 108.296875 -69.375 L 106.796875 -62.375 L 106.796875 -36.4375 L 89.828125 -24.453125 L 62.875 -13.46875 L 32.9375 -26.453125 L 31.9375 -70.359375 L 30.9375 -76.359375 L 31.4375 -108.296875 L 31.4375 -115.78125 L 30.4375 -140.734375 L 29.9375 -162.1875 L 30.9375 -185.140625 L 30.4375 -219.078125 L 59.390625 -204.609375 L 79.34375 -195.125 L 103.296875 -183.15625 L 108.796875 -163.6875 L 109.296875 -148.21875 L 109.796875 -137.234375 L 107.796875 -124.265625 L 107.796875 -109.796875 L 108.296875 -100.3125 Z M 92.328125 -313.40625 L 108.796875 -304.421875 L 108.296875 -264 L 99.8125 -241.046875 L 46.40625 -239.546875 L 31.4375 -252.015625 L 30.9375 -301.921875 L 48.90625 -313.40625 Z M 92.328125 -313.40625 "/></g></g></g><g fill="#ffe5bc" fill-opacity="1"><g transform="translate(1237.636693, 401.008311)"><g><path d="M 135.734375 -72.859375 L 162.6875 -64.875 L 191.140625 -70.359375 L 204.109375 -80.84375 L 208.109375 -91.828125 L 202.109375 -114.78125 L 176.65625 -126.265625 L 157.703125 -136.234375 L 136.734375 -147.71875 L 137.234375 -147.71875 L 118.765625 -156.703125 L 96.3125 -168.171875 L 74.859375 -178.15625 L 53.890625 -192.140625 L 42.921875 -213.59375 L 36.4375 -239.546875 L 39.421875 -266.984375 L 51.90625 -285.953125 L 66.375 -298.921875 L 79.34375 -305.421875 L 105.296875 -314.40625 L 134.25 -316.890625 L 192.625 -316.890625 L 220.578125 -311.40625 L 246.53125 -301.921875 L 264.5 -288.953125 L 279.96875 -272.984375 L 285.453125 -250.515625 L 293.4375 -220.078125 L 262 -221.078125 L 237.546875 -219.578125 L 209.59375 -223.078125 L 206.109375 -236.546875 L 197.125 -250.015625 L 180.15625 -258 L 161.6875 -262.5 L 139.234375 -260.5 L 126.265625 -249.03125 L 122.265625 -238.046875 L 125.765625 -223.078125 L 132.25 -212.59375 L 162.1875 -202.609375 L 186.140625 -191.140625 L 205.609375 -182.15625 L 229.5625 -172.171875 L 254.015625 -160.6875 L 276.96875 -143.71875 L 292.4375 -119.765625 L 297.4375 -88.828125 L 295.4375 -69.859375 L 288.953125 -52.90625 L 275.96875 -38.421875 L 258 -27.953125 L 232.5625 -18.96875 L 201.609375 -12.46875 L 158.703125 -9.484375 L 119.265625 -15.46875 L 95.3125 -21.953125 L 66.875 -31.4375 L 51.40625 -46.90625 L 36.921875 -60.890625 L 26.453125 -80.84375 L 25.453125 -111.28125 L 55.890625 -107.296875 L 80.34375 -108.796875 L 114.78125 -111.28125 L 116.78125 -90.328125 L 126.765625 -80.34375 Z M 135.734375 -72.859375 "/></g></g></g><g fill="#ffe5bc" fill-opacity="1"><g transform="translate(1525.084127, 401.008311)"><g/></g></g><g fill="#ffe5bc" fill-opacity="1"><g transform="translate(1635.870748, 401.008311)"><g><path d="M 26.453125 -310.90625 L 54.890625 -313.90625 L 81.34375 -312.90625 L 108.796875 -310.90625 L 131.75 -311.90625 L 154.703125 -310.90625 L 179.65625 -314.40625 L 217.578125 -309.40625 L 246.53125 -295.9375 L 264 -281.46875 L 273.484375 -259 L 274.46875 -237.546875 L 273.484375 -212.59375 L 259 -193.625 L 240.546875 -179.65625 L 260 -173.671875 L 276.96875 -159.6875 L 285.953125 -136.234375 L 289.453125 -106.796875 L 284.953125 -79.34375 L 274.46875 -55.890625 L 260.5 -39.921875 L 237.546875 -24.953125 L 213.09375 -18.46875 L 189.640625 -15.46875 L 161.1875 -15.96875 L 135.234375 -16.46875 L 110.78125 -18.46875 L 82.34375 -18.46875 L 57.890625 -17.96875 L 25.953125 -14.46875 L 23.953125 -44.921875 L 22.953125 -72.359375 L 24.453125 -92.328125 L 24.453125 -187.140625 L 23.953125 -213.59375 L 26.453125 -234.546875 L 23.953125 -260 L 22.953125 -284.453125 Z M 101.8125 -70.859375 L 119.765625 -70.359375 L 142.234375 -72.859375 L 168.671875 -71.359375 L 191.640625 -73.859375 L 206.109375 -82.34375 L 211.09375 -88.828125 L 211.59375 -107.796875 L 209.59375 -124.765625 L 197.625 -138.234375 L 173.171875 -144.71875 L 142.234375 -141.734375 L 122.265625 -143.71875 L 101.8125 -140.234375 L 101.8125 -124.265625 L 101.3125 -102.796875 L 99.8125 -85.34375 Z M 101.8125 -196.625 L 119.765625 -195.125 L 136.234375 -197.125 L 161.6875 -196.625 L 184.140625 -198.625 L 195.125 -209.59375 L 197.125 -229.0625 L 193.625 -245.53125 L 183.65625 -253.515625 L 162.6875 -260 L 137.234375 -258.5 L 117.78125 -256.515625 L 100.3125 -256.515625 L 99.8125 -237.546875 L 100.8125 -214.09375 Z M 101.8125 -196.625 "/></g></g></g><g fill="#ffe5bc" fill-opacity="1"><g transform="translate(1918.32785, 401.008311)"><g><path d="M 108.296875 -69.375 L 106.796875 -62.375 L 106.796875 -36.4375 L 89.828125 -24.453125 L 62.875 -13.46875 L 32.9375 -26.453125 L 31.9375 -70.359375 L 30.9375 -76.359375 L 31.4375 -108.296875 L 31.4375 -115.78125 L 30.4375 -140.734375 L 29.9375 -162.1875 L 30.9375 -185.140625 L 30.4375 -219.078125 L 59.390625 -204.609375 L 79.34375 -195.125 L 103.296875 -183.15625 L 108.796875 -163.6875 L 109.296875 -148.21875 L 109.796875 -137.234375 L 107.796875 -124.265625 L 107.796875 -109.796875 L 108.296875 -100.3125 Z M 92.328125 -313.40625 L 108.796875 -304.421875 L 108.296875 -264 L 99.8125 -241.046875 L 46.40625 -239.546875 L 31.4375 -252.015625 L 30.9375 -301.921875 L 48.90625 -313.40625 Z M 92.328125 -313.40625 "/></g></g></g><g fill="#ffe5bc" fill-opacity="1"><g transform="translate(2039.095429, 401.008311)"><g><path d="M 160.1875 -58.890625 L 173.171875 -64.375 L 178.15625 -71.359375 L 171.171875 -85.84375 L 152.203125 -92.828125 L 125.265625 -101.3125 L 98.8125 -116.28125 L 67.875 -127.75 L 44.421875 -142.234375 L 21.953125 -155.703125 L 15.46875 -177.65625 L 21.953125 -202.609375 L 34.9375 -219.078125 L 49.90625 -230.5625 L 76.359375 -235.046875 L 105.796875 -240.046875 L 140.234375 -242.53125 L 172.171875 -238.046875 L 197.125 -233.546875 L 224.078125 -224.078125 L 241.046875 -211.09375 L 252.515625 -192.140625 L 256.515625 -165.1875 L 229.0625 -166.1875 L 205.609375 -166.1875 L 175.171875 -168.671875 L 170.171875 -182.15625 L 162.1875 -190.640625 L 138.234375 -192.625 L 107.296875 -187.140625 L 98.3125 -176.65625 L 104.296875 -167.6875 L 128.25 -157.203125 L 148.71875 -149.21875 L 175.171875 -139.234375 L 202.109375 -131.25 L 232.0625 -116.78125 L 252.515625 -95.8125 L 258.5 -72.859375 L 256.515625 -52.90625 L 248.53125 -34.4375 L 236.046875 -25.453125 L 211.59375 -19.96875 L 181.65625 -12.46875 L 135.234375 -12.46875 L 97.3125 -13.96875 L 62.375 -18.46875 L 39.421875 -30.4375 L 24.453125 -42.921875 L 13.96875 -61.875 L 10.984375 -92.328125 L 38.421875 -88.328125 L 61.375 -84.34375 L 89.828125 -84.34375 L 97.8125 -66.875 L 111.78125 -62.375 L 136.734375 -59.890625 Z M 160.1875 -58.890625 "/></g></g></g><g fill="#ffe5bc" fill-opacity="1"><g transform="translate(2284.623195, 401.008311)"><g><path d="M 53.390625 -257.015625 L 50.90625 -282.453125 L 51.90625 -325.375 L 81.84375 -312.90625 L 128.75 -301.921875 L 133.75 -283.953125 L 132.75 -253.515625 L 131.25 -237.046875 L 153.203125 -236.046875 L 183.65625 -237.546875 L 192.140625 -220.078125 L 193.625 -195.625 L 184.140625 -186.640625 L 170.671875 -179.65625 L 156.703125 -180.15625 L 131.25 -181.15625 L 132.25 -161.1875 L 133.25 -132.75 L 130.25 -108.296875 L 132.75 -88.828125 L 135.734375 -75.859375 L 177.65625 -73.859375 L 190.140625 -62.375 L 192.625 -42.921875 L 189.640625 -30.4375 L 176.15625 -16.96875 L 162.1875 -16.46875 L 140.234375 -17.46875 L 112.78125 -18.96875 L 91.328125 -21.453125 L 67.375 -30.9375 L 56.390625 -52.40625 L 50.90625 -75.359375 L 53.890625 -94.8125 L 54.390625 -115.78125 L 52.90625 -139.234375 L 50.40625 -161.6875 L 52.40625 -180.65625 L 33.4375 -181.15625 L 3.5 -234.046875 L 51.40625 -235.046875 Z M 53.390625 -257.015625 "/></g></g></g><g fill="#ffe5bc" fill-opacity="1"><g transform="translate(2460.285448, 401.008311)"><g><path d="M 22.453125 -251.515625 L 54.390625 -242.53125 L 74.859375 -238.046875 L 101.3125 -230.0625 L 101.3125 -210.09375 L 112.28125 -221.078125 L 132.25 -235.046875 L 160.6875 -235.046875 L 183.15625 -234.546875 L 213.59375 -236.546875 L 211.59375 -208.109375 L 211.59375 -180.65625 L 185.640625 -177.65625 L 161.1875 -179.65625 L 129.25 -171.671875 L 118.28125 -163.6875 L 108.796875 -142.234375 L 103.296875 -114.78125 L 102.296875 -89.828125 L 103.296875 -69.859375 L 104.796875 -44.421875 L 79.34375 -13.46875 L 47.90625 -12.46875 L 27.453125 -24.953125 L 22.953125 -44.921875 L 25.953125 -67.875 L 23.453125 -92.328125 L 23.453125 -138.234375 L 24.953125 -165.1875 L 22.453125 -189.140625 L 25.453125 -213.09375 Z M 22.453125 -251.515625 "/></g></g></g><g fill="#ffe5bc" fill-opacity="1"><g transform="translate(2656.907355, 401.008311)"><g><path d="M 172.171875 -235.046875 L 197.125 -230.5625 L 220.078125 -221.078125 L 238.046875 -206.109375 L 250.515625 -188.140625 L 261 -170.671875 L 267.984375 -149.21875 L 266.984375 -124.765625 L 266.984375 -101.3125 L 261.5 -82.34375 L 251.515625 -61.375 L 238.046875 -41.421875 L 219.578125 -30.9375 L 199.625 -23.453125 L 174.671875 -13.96875 L 141.234375 -11.484375 L 109.796875 -12.96875 L 79.34375 -23.453125 L 61.375 -36.4375 L 40.921875 -55.390625 L 27.953125 -75.359375 L 21.453125 -100.3125 L 20.453125 -125.265625 L 20.953125 -149.71875 L 28.9375 -175.671875 L 38.921875 -196.125 L 57.390625 -215.09375 L 80.34375 -224.578125 L 108.796875 -237.046875 L 149.71875 -238.046875 Z M 143.21875 -183.15625 L 127.25 -180.15625 L 112.78125 -170.171875 L 100.8125 -151.21875 L 100.3125 -124.765625 L 102.796875 -96.8125 L 112.28125 -81.84375 L 128.75 -69.375 L 144.71875 -65.875 L 160.6875 -69.375 L 176.65625 -81.84375 L 183.65625 -97.3125 L 188.140625 -124.765625 L 183.65625 -150.71875 L 175.671875 -168.671875 L 160.1875 -181.15625 Z M 143.21875 -183.15625 "/></g></g></g></g></g></g></g></g></svg>